<?xml version="1.0" standalone="no"?>
<!DOCTYPE svg PUBLIC "-//W3C//DTD SVG 20010904//EN"
 "http://www.w3.org/TR/2001/REC-SVG-20010904/DTD/svg10.dtd">
<svg version="1.0" xmlns="http://www.w3.org/2000/svg"
 width="300.000000pt" height="314.000000pt" viewBox="0 0 300.000000 314.000000"
 preserveAspectRatio="xMidYMid meet">
<metadata>
Created by potrace 1.10, written by Peter Selinger 2001-2011
</metadata>
<g transform="translate(0.000000,314.000000) scale(0.050000,-0.050000)"
fill="#000000" stroke="none">
<path d="M1910 5158 c-416 -56 -861 -449 -1002 -884 -92 -285 -71 -706 54
-1069 21 -61 36 -112 33 -113 -307 -105 -457 -419 -268 -560 49 -37 89 -43
330 -49 l274 -7 41 -63 c465 -706 1461 -1209 2563 -1293 396 -30 489 2 589
204 l54 110 142 13 c342 32 419 141 337 476 l-45 182 59 42 c318 228 393 428
259 692 -57 114 -63 212 -20 353 105 346 5 449 -473 487 -668 53 -1009 239
-1771 965 -501 478 -716 574 -1156 514z m573 -183 c122 -60 209 -130 468 -376
832 -789 1193 -982 1935 -1036 357 -25 394 -69 314 -368 -49 -182 -44 -250 33
-402 103 -201 54 -345 -172 -514 -158 -118 -179 -187 -112 -377 84 -238 33
-314 -234 -346 -186 -22 -217 -41 -287 -180 -83 -164 -197 -188 -658 -135
-1324 151 -2316 878 -2698 1977 -83 238 -86 256 -32 202 105 -105 170 -15 170
237 0 315 -64 461 -189 436 -34 -7 -61 -9 -61 -4 0 4 22 71 48 149 217 640
940 1002 1475 737z m-1346 -2180 l101 -195 -209 0 c-307 0 -374 90 -197 267
47 47 191 137 201 126 1 -2 48 -91 104 -198z"/>
<path d="M1706 4180 c-176 -71 -117 -529 90 -700 114 -94 223 -74 276 51 109
262 -156 732 -366 649z"/>
<path d="M1386 3364 c-72 -46 -81 -179 -26 -396 177 -692 488 -665 329 28 -68
297 -187 442 -303 368z"/>
<path d="M2330 3262 c-340 -99 -519 -311 -421 -500 42 -81 112 -101 376 -108
224 -6 240 -9 375 -78 122 -63 144 -69 169 -44 90 90 -189 214 -499 223 -275
8 -306 15 -333 73 -70 154 237 344 592 367 179 11 217 26 197 78 -15 40 -307
33 -456 -11z"/>
</g>
</svg>
