<?xml version="1.0" standalone="no"?>
<!DOCTYPE svg PUBLIC "-//W3C//DTD SVG 20010904//EN"
 "http://www.w3.org/TR/2001/REC-SVG-20010904/DTD/svg10.dtd">
<svg version="1.0" xmlns="http://www.w3.org/2000/svg"
 width="768.000000pt" height="768.000000pt" viewBox="0 0 768.000000 768.000000"
 preserveAspectRatio="xMidYMid meet">
<metadata>
Created by potrace 1.10, written by Peter Selinger 2001-2011
</metadata>
<g transform="translate(0.000000,768.000000) scale(0.100000,-0.100000)"
fill="#000000" stroke="none">
<path d="M3280 7089 c-294 -25 -414 -45 -571 -94 -26 -8 -55 -15 -66 -15 -11
0 -28 -7 -39 -15 -10 -8 -29 -15 -41 -15 -12 0 -34 -6 -50 -14 -15 -8 -48 -22
-73 -32 -53 -20 -168 -72 -190 -85 -8 -5 -21 -11 -27 -14 -33 -13 -40 -17 -68
-35 -16 -11 -37 -23 -45 -27 -8 -3 -33 -18 -55 -32 -22 -14 -48 -30 -57 -36
-42 -25 -156 -105 -169 -117 -8 -8 -37 -32 -64 -53 -81 -64 -193 -170 -290
-276 -58 -62 -186 -221 -193 -239 -3 -8 -18 -31 -34 -51 -15 -20 -28 -39 -28
-42 0 -3 -13 -25 -29 -49 -51 -76 -117 -203 -167 -318 -9 -19 -22 -48 -30 -63
-8 -16 -14 -35 -14 -42 0 -7 -6 -26 -14 -42 -18 -37 -36 -90 -45 -133 -4 -19
-13 -45 -19 -57 -7 -12 -12 -34 -12 -48 0 -14 -5 -36 -11 -47 -7 -12 -15 -47
-19 -77 -4 -31 -13 -81 -18 -111 -35 -179 -37 -222 -42 -1282 0 -5 -29 -8 -65
-8 -35 0 -79 -6 -97 -14 -18 -8 -40 -17 -48 -21 -20 -8 -49 -26 -88 -53 -38
-28 -131 -148 -148 -192 -3 -8 -12 -31 -19 -50 -34 -86 -27 -256 15 -360 12
-30 25 -66 30 -80 5 -14 18 -50 30 -80 12 -30 25 -66 30 -80 5 -14 18 -50 30
-80 12 -30 24 -66 27 -80 3 -14 12 -34 19 -45 8 -11 14 -27 14 -37 0 -16 7
-34 45 -123 7 -16 15 -39 18 -50 3 -11 15 -45 27 -75 45 -118 52 -136 57 -160
3 -14 12 -34 19 -45 8 -11 14 -29 14 -40 0 -12 7 -30 15 -41 8 -10 15 -28 15
-40 0 -11 7 -29 15 -40 8 -10 15 -28 15 -40 0 -11 7 -29 15 -40 12 -16 14 -82
15 -414 0 -417 1 -429 49 -528 17 -36 92 -119 126 -139 127 -77 331 -124 450
-104 33 6 78 13 100 16 41 7 91 24 160 57 87 41 124 71 255 199 106 105 164
143 280 183 63 22 267 22 330 0 114 -40 174 -79 275 -178 96 -94 157 -147 200
-173 127 -76 320 -123 430 -104 33 6 78 13 100 16 52 8 156 50 220 88 47 28
114 86 175 151 72 76 171 156 193 156 8 0 20 7 27 15 7 8 20 15 30 15 10 0 34
7 55 16 29 12 66 14 168 12 132 -4 154 -9 245 -52 85 -41 96 -50 191 -146 172
-174 271 -230 474 -265 103 -19 90 -20 297 18 126 24 294 132 340 219 29 55
40 228 39 588 -1 214 2 262 16 300 9 25 21 59 26 77 5 18 14 35 19 38 6 4 10
16 10 28 0 12 7 31 15 41 8 11 15 28 15 37 0 10 6 30 14 46 13 26 25 56 62
156 8 20 21 56 30 80 8 23 22 55 30 70 8 16 14 35 14 42 0 7 6 26 14 42 13 26
25 56 62 156 44 118 73 195 89 232 7 17 20 48 28 70 28 75 47 125 65 167 23
58 24 268 0 313 -9 17 -24 48 -34 69 -19 39 -121 150 -159 173 -83 50 -127 63
-234 72 l-83 6 0 360 c1 347 4 395 23 395 13 0 41 31 61 67 26 44 24 141 -3
192 -21 42 -37 58 -73 76 -16 8 -22 21 -23 55 -4 79 -34 239 -73 390 -6 25
-15 61 -20 80 -11 46 -29 98 -46 133 -8 16 -14 36 -14 46 0 9 -7 26 -15 37 -8
10 -15 25 -15 33 0 21 -116 253 -172 345 -27 44 -55 90 -61 101 -18 30 -125
173 -180 240 -79 98 -285 295 -392 376 -101 77 -219 159 -245 173 -8 4 -42 22
-75 41 -63 35 -185 96 -245 122 -19 9 -48 22 -63 29 -16 8 -36 14 -46 14 -9 0
-22 5 -28 11 -6 6 -26 14 -44 19 -32 8 -53 14 -131 41 -18 6 -51 15 -73 19
-22 4 -60 12 -85 18 -98 24 -211 41 -330 51 -207 17 -261 19 -360 10z m510
-154 c47 -9 105 -21 130 -27 25 -6 63 -14 85 -19 74 -15 175 -47 330 -107 47
-17 163 -70 185 -83 8 -5 38 -20 65 -34 28 -15 64 -35 80 -45 17 -11 37 -23
45 -27 82 -39 315 -224 447 -356 102 -102 245 -272 266 -314 5 -13 14 -23 19
-23 4 0 8 -4 8 -9 0 -5 19 -38 42 -73 50 -74 54 -81 120 -213 54 -107 67 -135
93 -205 16 -42 24 -64 55 -150 6 -19 16 -51 20 -70 5 -19 14 -55 20 -80 33
-128 52 -224 67 -332 5 -35 3 -38 -33 -53 -49 -20 -68 -38 -94 -87 -26 -50
-27 -147 -2 -191 24 -44 72 -86 106 -95 l29 -8 -1 -814 c-2 -787 -1 -816 17
-837 28 -33 83 -31 106 3 15 23 16 63 14 403 -1 208 1 383 5 389 14 23 143 4
212 -32 61 -32 119 -93 153 -161 30 -63 32 -73 29 -154 -4 -80 -10 -105 -44
-186 -12 -28 -23 -60 -60 -157 -8 -24 -22 -56 -30 -71 -8 -16 -14 -35 -14 -44
0 -8 -6 -27 -14 -41 -13 -25 -21 -45 -61 -152 -8 -22 -22 -58 -30 -80 -8 -22
-22 -59 -31 -82 -8 -24 -22 -56 -30 -71 -8 -16 -14 -35 -14 -42 0 -7 -6 -26
-14 -42 -8 -15 -21 -46 -29 -68 -8 -22 -22 -59 -31 -82 -9 -24 -23 -62 -32
-85 -8 -24 -22 -56 -30 -71 -8 -16 -14 -35 -14 -44 0 -8 -6 -27 -13 -41 -8
-15 -21 -42 -30 -60 -15 -30 -17 -79 -17 -429 l0 -396 -34 -42 c-63 -76 -201
-132 -353 -141 -124 -7 -237 10 -303 47 -8 5 -35 19 -60 31 -25 13 -90 68
-145 124 -180 181 -272 233 -469 260 -84 11 -113 11 -195 -1 -192 -28 -309
-94 -461 -259 -59 -63 -134 -121 -190 -147 -112 -52 -120 -54 -260 -54 -141 0
-153 3 -265 56 -66 33 -77 40 -171 135 -176 177 -293 242 -481 270 -132 19
-274 -1 -393 -55 -107 -49 -171 -98 -281 -217 -77 -83 -117 -110 -252 -168
-97 -42 -367 -27 -457 25 -8 5 -24 13 -35 18 -26 12 -77 60 -96 91 -9 14 -23
55 -32 91 -14 57 -16 111 -10 415 6 362 6 365 -37 474 -12 30 -25 66 -30 80
-5 14 -18 50 -30 80 -12 30 -24 66 -27 80 -3 14 -12 34 -19 45 -8 11 -14 29
-14 40 0 11 -6 29 -14 40 -7 11 -16 31 -19 45 -5 24 -10 38 -57 160 -12 30
-25 66 -30 80 -5 14 -18 50 -30 80 -12 30 -25 70 -30 88 -4 18 -12 38 -18 45
-5 7 -12 23 -15 37 -3 14 -15 50 -27 80 -12 30 -25 66 -30 80 -5 14 -19 50
-31 80 -31 74 -37 207 -14 264 39 94 99 179 139 197 11 6 41 21 66 34 53 28
159 34 212 11 18 -8 40 -17 48 -20 76 -29 176 -155 211 -265 4 -14 17 -51 29
-81 12 -30 25 -68 30 -85 5 -16 18 -55 30 -85 12 -30 25 -66 30 -80 5 -14 18
-50 30 -80 12 -30 24 -66 27 -80 3 -14 12 -34 19 -45 8 -11 14 -28 14 -38 0
-10 6 -31 14 -45 16 -32 36 -88 44 -122 3 -14 16 -42 29 -62 28 -45 63 -50
100 -16 26 24 29 58 9 96 -8 15 -21 46 -30 70 -9 23 -23 61 -32 85 -9 23 -22
57 -30 75 -8 18 -14 41 -14 50 0 10 -7 27 -15 38 -8 10 -15 28 -15 39 0 11 -6
29 -14 40 -7 11 -16 31 -19 45 -5 24 -12 43 -57 160 -12 30 -25 69 -30 85 -13
48 -45 129 -76 192 -48 96 -200 233 -259 233 -18 0 -17 -28 -15 300 3 680 20
971 66 1136 8 28 14 61 14 73 0 12 5 32 12 44 6 12 15 38 19 57 7 33 13 54 46
145 52 142 152 344 224 453 16 24 29 45 29 48 0 3 41 59 90 124 157 207 293
343 500 500 65 49 121 90 124 90 3 0 22 12 43 26 21 14 47 30 58 35 11 5 34
18 50 28 31 20 152 81 215 108 19 9 48 22 63 29 16 8 36 14 46 14 9 0 22 5 28
11 6 6 26 14 44 19 19 4 48 13 64 18 17 6 55 17 85 26 30 8 80 22 111 30 31 9
69 16 85 16 16 0 45 5 64 11 100 31 619 33 780 4z m2170 -2359 c22 -41 23 -46
9 -81 -22 -58 -42 -65 -80 -30 -27 27 -30 35 -26 73 5 46 30 82 57 82 10 0 27
-18 40 -44z"/>
<path d="M3020 4773 c-87 -38 -108 -51 -150 -93 -88 -86 -112 -141 -117 -269
-4 -92 4 -135 38 -191 5 -8 13 -24 18 -36 17 -38 109 -118 161 -139 8 -4 31
-13 51 -22 26 -10 61 -13 130 -10 129 5 185 30 269 118 43 45 57 67 94 152 31
73 19 211 -25 287 -5 8 -13 25 -18 37 -6 12 -31 42 -56 68 -26 25 -56 50 -68
56 -12 5 -29 13 -37 18 -75 44 -218 56 -290 24z m228 -137 c185 -95 207 -334
42 -448 -77 -53 -153 -68 -224 -43 -106 37 -183 128 -193 227 -6 68 25 157 76
210 72 75 209 100 299 54z"/>
<path d="M4767 4771 c-26 -10 -53 -23 -59 -29 -7 -7 -17 -12 -24 -12 -17 0
-117 -111 -141 -156 -75 -144 -42 -334 78 -453 25 -25 63 -55 85 -65 21 -10
51 -25 66 -33 37 -19 204 -18 242 2 15 8 34 15 41 15 22 0 113 74 147 121 50
67 64 98 78 170 15 76 3 160 -32 237 -22 47 -123 162 -142 162 -7 0 -17 5 -23
11 -46 46 -225 63 -316 30z m210 -123 c72 -19 146 -95 168 -171 65 -226 -159
-414 -369 -311 -74 36 -121 95 -137 172 -21 104 7 191 84 258 68 60 156 77
254 52z"/>
<path d="M3485 3355 c-5 -2 -22 -6 -37 -9 -43 -10 -98 -73 -98 -112 0 -42 57
-154 118 -229 47 -59 148 -148 187 -166 11 -5 27 -13 35 -18 24 -14 81 -38
135 -55 36 -12 88 -16 185 -16 133 0 178 8 265 45 17 7 37 16 45 19 8 3 29 15
45 26 17 11 36 23 44 26 55 27 177 170 230 268 52 99 44 141 -39 198 -31 22
-117 24 -157 4 -110 -56 -204 -71 -433 -71 -224 0 -295 12 -425 70 -33 15 -85
25 -100 20z m156 -169 c67 -22 135 -34 302 -51 116 -13 430 29 499 66 29 15
58 2 58 -27 0 -43 -37 -100 -102 -157 -66 -57 -109 -82 -205 -119 -50 -20 -76
-23 -188 -22 -123 0 -134 2 -203 32 -97 42 -183 104 -231 166 -67 88 -77 122
-38 129 12 2 25 5 28 6 4 0 40 -10 80 -23z"/>
<path d="M6000 6035 c-7 -8 -18 -15 -24 -15 -20 0 -76 -104 -76 -142 0 -34 40
-115 68 -135 15 -11 44 -26 65 -32 86 -29 189 36 203 127 19 130 -45 212 -165
212 -40 0 -63 -5 -71 -15z"/>
<path d="M6922 5398 c-5 -7 -15 -31 -22 -53 -7 -22 -19 -55 -26 -73 -8 -18
-14 -39 -14 -47 0 -37 -86 -135 -119 -135 -6 0 -25 -6 -43 -14 -18 -8 -61 -22
-95 -32 -45 -12 -64 -23 -69 -37 -8 -25 9 -39 68 -56 24 -7 58 -19 76 -27 18
-8 39 -14 48 -14 16 0 60 -26 84 -50 25 -25 80 -149 80 -181 0 -23 37 -99 48
-99 20 1 36 22 53 71 10 30 18 60 19 66 0 7 14 42 31 78 32 67 73 105 129 117
14 3 41 12 60 19 19 7 54 19 78 27 33 12 42 20 42 38 0 27 -18 38 -92 58 -85
24 -123 40 -159 67 -42 32 -58 64 -104 209 -16 50 -37 80 -56 80 -3 0 -11 -6
-17 -12z m85 -340 c24 -23 43 -48 43 -56 0 -17 -66 -98 -86 -106 -32 -12 -124
62 -124 100 0 23 80 104 103 104 12 0 41 -19 64 -42z"/>
<path d="M6862 4045 c-24 -7 -52 -21 -63 -31 -26 -23 -59 -99 -59 -135 0 -41
30 -99 70 -136 32 -30 41 -33 97 -33 95 0 149 41 168 128 29 139 -83 248 -213
207z"/>
</g>
</svg>
