<?xml version="1.0" standalone="no"?>
<!DOCTYPE svg PUBLIC "-//W3C//DTD SVG 20010904//EN"
 "http://www.w3.org/TR/2001/REC-SVG-20010904/DTD/svg10.dtd">
<svg version="1.0" xmlns="http://www.w3.org/2000/svg"
 width="600.000000pt" height="600.000000pt" viewBox="0 0 600.000000 600.000000"
 preserveAspectRatio="xMidYMid meet">
<metadata>
Created by potrace 1.10, written by Peter Selinger 2001-2011
</metadata>
<g transform="translate(0.000000,600.000000) scale(0.100000,-0.100000)"
fill="#000000" stroke="none">
<path d="M5412 5984 c4 -21 22 -23 26 -1 2 10 -3 17 -13 17 -10 0 -15 -6 -13
-16z"/>
<path d="M5482 5988 c6 -18 28 -21 28 -4 0 9 -7 16 -16 16 -9 0 -14 -5 -12
-12z"/>
<path d="M5280 5946 c-66 -24 -105 -38 -135 -46 -27 -8 -153 -53 -265 -94 -25
-9 -64 -23 -87 -32 -23 -8 -79 -28 -125 -45 -46 -17 -97 -34 -113 -38 -17 -4
-39 -12 -50 -18 -23 -12 -57 -24 -165 -60 -41 -13 -79 -28 -85 -32 -5 -5 -21
-11 -35 -14 -14 -3 -50 -15 -80 -27 -30 -12 -68 -25 -85 -30 -16 -5 -55 -18
-85 -30 -30 -12 -71 -26 -90 -32 -19 -5 -39 -14 -45 -18 -5 -4 -21 -10 -35
-13 -14 -3 -50 -15 -80 -27 -30 -12 -70 -25 -88 -30 -18 -4 -38 -12 -45 -18
-7 -5 -23 -12 -37 -15 -14 -3 -50 -15 -80 -27 -30 -12 -64 -24 -75 -27 -11 -3
-33 -11 -50 -18 -16 -7 -55 -21 -85 -30 -30 -10 -64 -22 -75 -28 -11 -6 -33
-14 -50 -18 -16 -4 -55 -17 -85 -29 -30 -12 -66 -24 -80 -28 -14 -3 -34 -11
-45 -18 -33 -20 -83 -26 -121 -14 -74 25 -150 -16 -186 -99 -16 -38 -20 -69
-20 -179 0 -86 6 -151 15 -185 8 -29 20 -72 26 -97 29 -113 51 -170 104 -280
59 -121 112 -190 187 -243 37 -26 54 -31 95 -31 66 1 90 15 125 72 25 42 37
51 92 70 35 12 106 37 158 56 52 18 129 46 170 61 41 15 80 30 85 35 6 4 21
10 35 13 25 5 98 30 135 46 11 5 40 16 65 26 25 9 56 22 70 27 14 6 39 14 55
18 17 5 55 18 85 30 30 12 66 25 80 30 14 5 50 18 80 30 30 12 87 32 125 45
39 13 95 33 125 45 110 42 136 51 165 60 17 6 39 14 50 19 24 11 150 58 191
70 16 5 54 19 84 31 30 11 87 32 125 45 39 13 95 33 125 45 30 12 71 26 90 32
19 5 39 14 44 19 6 5 16 9 22 9 7 0 25 5 41 12 56 22 189 69 222 78 18 5 38
13 44 19 6 6 17 11 25 11 27 0 133 92 170 146 38 56 53 106 53 175 0 62 3 72
20 76 28 8 28 73 -1 73 -16 0 -20 7 -20 38 0 38 -20 110 -49 172 -63 138 -214
250 -337 250 -57 0 -60 -3 -44 -45 9 -23 14 -26 40 -20 38 8 40 -10 3 -21 -16
-4 -31 -7 -35 -6 -11 3 -10 -16 1 -20 4 -1 12 -13 15 -25 6 -20 4 -23 -18 -23
-19 0 -26 5 -26 20 0 12 -7 20 -16 20 -12 0 -15 -6 -10 -23 7 -31 -3 -67 -20
-67 -8 0 -14 9 -14 19 0 11 -4 22 -9 26 -12 6 -102 -82 -181 -175 -30 -36 -61
-72 -70 -81 -8 -9 -33 -37 -55 -64 -77 -93 -118 -140 -164 -194 -25 -29 -50
-61 -56 -70 -9 -16 -41 -54 -75 -91 -8 -9 -33 -38 -55 -65 -21 -28 -42 -52
-45 -55 -4 -3 -37 -43 -76 -90 -38 -47 -75 -91 -83 -99 -12 -14 -67 -35 -247
-95 -40 -14 -80 -29 -90 -34 -11 -5 -35 -15 -54 -21 -52 -18 -157 -57 -220
-81 -30 -12 -68 -26 -85 -31 -16 -5 -39 -13 -50 -18 -11 -5 -60 -24 -110 -41
-49 -18 -107 -38 -127 -46 -21 -8 -55 -20 -75 -28 -21 -8 -58 -22 -83 -31 -25
-9 -63 -24 -85 -32 -22 -8 -59 -23 -83 -34 -68 -30 -82 -27 -82 24 -1 40 -26
172 -48 247 -35 119 -82 223 -133 294 -16 21 -26 42 -24 47 3 4 31 15 63 24
31 9 68 21 82 27 14 6 39 14 55 18 17 5 55 18 85 30 30 12 69 25 85 29 17 4
39 12 50 18 11 6 36 16 55 22 80 28 176 62 190 68 49 20 179 65 200 70 14 3
30 9 35 13 6 4 42 17 80 29 39 13 84 29 100 36 17 7 39 16 50 18 24 7 101 34
130 46 55 23 87 35 165 61 47 16 123 43 170 60 47 18 96 34 110 37 14 3 30 10
37 15 7 6 27 14 45 18 18 5 58 18 88 30 81 31 116 44 205 74 44 15 91 32 105
38 14 5 39 16 55 22 17 7 58 27 93 44 35 18 72 32 83 32 10 0 19 5 19 10 0 14
-51 59 -67 60 -7 0 -13 5 -13 11 0 6 8 8 18 5 23 -7 75 7 80 22 2 7 -3 12 -11
12 -8 0 -20 7 -27 15 -15 18 -72 19 -120 1z m350 -116 c0 -5 -15 -10 -32 -9
-28 0 -30 2 -13 9 28 12 45 12 45 0z m41 -97 c38 -44 79 -102 79 -113 0 -5 6
-24 14 -42 8 -18 21 -49 30 -70 20 -44 20 -79 2 -140 -32 -104 -93 -165 -191
-191 -11 -3 -45 -15 -75 -27 -30 -11 -86 -32 -125 -45 -38 -13 -95 -33 -125
-45 -30 -11 -71 -27 -90 -34 -97 -36 -179 -73 -215 -96 -46 -30 -58 -64 -24
-73 11 -3 19 -11 17 -18 -7 -22 -26 -21 -33 1 -5 16 -12 19 -28 14 -12 -4 -26
-13 -30 -20 -12 -21 -37 -17 -37 6 0 16 -26 40 -44 40 -13 0 -5 -28 9 -34 8
-3 15 -13 15 -22 0 -12 -6 -15 -23 -10 -16 4 -29 -1 -41 -15 -12 -14 -21 -18
-28 -11 -6 6 2 25 26 57 20 25 36 51 36 56 0 5 5 9 11 9 6 0 17 7 25 15 9 8
24 15 35 15 10 0 19 -7 19 -15 0 -8 -7 -15 -15 -15 -8 0 -15 -9 -15 -20 0 -11
4 -20 10 -20 14 0 50 42 50 59 0 8 26 40 58 70 31 31 76 79 99 106 23 28 56
66 73 85 40 44 178 211 205 248 11 15 36 45 56 67 46 50 105 123 161 197 49
66 72 72 109 31z m195 -240 c-11 -11 -19 6 -11 24 8 17 8 17 12 0 3 -10 2 -21
-1 -24z m54 -55 c0 -16 -3 -19 -11 -11 -6 6 -8 16 -5 22 11 17 16 13 16 -11z
m-3031 -455 c17 -24 23 -26 39 -16 19 12 32 8 32 -9 0 -5 -11 -13 -25 -18 -21
-8 -24 -13 -16 -29 10 -18 6 -31 -11 -31 -4 0 -8 11 -8 24 0 13 -7 26 -15 30
-9 3 -15 18 -15 35 0 16 -6 32 -12 34 -9 4 -9 6 -1 6 6 1 20 -11 32 -26z
m2006 8 c8 -14 -10 -22 -30 -15 -13 5 -14 8 -3 15 17 11 26 11 33 0z m-2085
-9 c0 -5 13 -22 30 -39 16 -16 27 -33 24 -36 -3 -3 -16 5 -29 19 -12 13 -30
24 -39 24 -16 0 -22 21 -9 33 9 10 23 9 23 -1z m-32 -60 c2 -12 11 -26 21 -31
22 -12 96 -160 143 -286 37 -99 74 -253 83 -345 10 -112 -22 -120 -73 -19 -18
35 -37 71 -42 79 -21 34 -80 201 -104 290 -13 52 -27 137 -31 188 -4 50 -11
92 -16 92 -5 0 -9 14 -9 31 0 35 23 36 28 1z m372 -693 c0 -5 6 -9 14 -9 22 0
30 -19 16 -35 -18 -22 -38 -18 -42 8 -2 14 -11 23 -25 25 -17 2 -23 10 -23 27
0 23 1 23 30 9 17 -9 30 -20 30 -25z m-70 -38 c0 -11 -4 -23 -10 -26 -6 -4
-10 5 -10 19 0 14 5 26 10 26 6 0 10 -9 10 -19z m40 -50 c0 -12 -9 -20 -27
-24 -35 -7 -38 -4 -21 22 16 26 48 28 48 2z"/>
<path d="M3320 4866 c0 -9 7 -16 16 -16 9 0 14 5 12 12 -6 18 -28 21 -28 4z"/>
<path d="M5240 4595 c0 -9 5 -15 11 -13 6 2 11 8 11 13 0 5 -5 11 -11 13 -6 2
-11 -4 -11 -13z"/>
<path d="M2823 3833 c-7 -3 -13 -15 -13 -28 0 -22 -31 -131 -49 -170 -24 -53
-53 -112 -64 -130 -31 -50 -63 -102 -74 -120 -30 -47 -76 -154 -89 -203 -17
-65 -18 -115 -1 -167 29 -91 61 -128 152 -174 55 -28 68 -31 161 -31 86 0 110
4 155 24 69 31 110 68 144 131 23 42 27 63 28 131 1 103 -27 179 -118 313 -69
100 -83 123 -95 146 -5 11 -14 27 -18 35 -38 67 -72 164 -72 206 0 32 -19 46
-47 37z m17 -299 c0 -8 7 -17 15 -20 20 -8 20 -64 0 -64 -11 0 -14 7 -9 25 5
19 2 25 -9 25 -21 0 -27 12 -20 38 6 23 23 20 23 -4z m80 -79 c0 -8 -4 -15
-10 -15 -5 0 -10 7 -10 15 0 8 5 15 10 15 6 0 10 -7 10 -15z m-100 -26 c0 -5
-11 -9 -25 -9 -27 0 -32 9 -13 28 12 12 38 -1 38 -19z m81 -116 c23 -43 53
-97 66 -120 16 -30 23 -58 23 -97 0 -53 -2 -56 -37 -81 -80 -54 -231 -21 -246
53 -10 49 16 123 78 227 13 22 24 48 25 57 0 15 24 37 42 38 3 0 25 -35 49
-77z"/>
<path d="M1371 3283 c-17 -21 -31 -42 -31 -48 0 -14 37 -87 48 -94 5 -3 43
-53 85 -111 42 -58 82 -112 89 -120 7 -8 31 -40 53 -70 22 -30 49 -63 60 -72
52 -45 145 4 145 76 0 30 -22 65 -151 238 -83 112 -161 211 -173 220 -11 10
-38 18 -58 18 -30 0 -42 -6 -67 -37z"/>
<path d="M3639 3244 c-29 -41 -59 -81 -65 -87 -45 -52 -206 -276 -211 -295 -6
-27 12 -69 42 -94 23 -20 61 -22 92 -5 12 7 92 105 177 219 146 193 156 210
156 251 0 36 -5 47 -30 65 -18 14 -44 22 -68 22 -36 0 -41 -4 -93 -76z"/>
<path d="M2213 2848 c-6 -7 -13 -26 -16 -43 -14 -76 -65 -216 -99 -270 -11
-17 -70 -112 -105 -170 -111 -183 -109 -354 6 -458 67 -60 139 -87 235 -87 88
0 142 16 217 63 99 62 143 211 101 334 -25 72 -72 165 -89 176 -7 4 -13 12
-13 17 0 5 -25 45 -54 90 -61 91 -86 141 -109 215 -8 28 -21 70 -29 94 -14 47
-29 60 -45 39z m-12 -361 c-8 -8 -11 -7 -11 4 0 9 3 19 7 23 4 4 9 2 11 -4 3
-7 -1 -17 -7 -23z m51 -99 c15 -13 72 -112 115 -200 26 -55 30 -100 8 -118 -8
-7 -15 -18 -15 -25 0 -29 -159 -62 -174 -36 -3 5 -18 12 -32 15 -34 9 -63 44
-64 76 0 14 8 45 18 70 31 82 107 229 118 229 5 1 17 -5 26 -11z"/>
<path d="M1235 2663 c-38 -9 -75 -54 -75 -91 0 -32 6 -42 73 -127 4 -5 62 -83
128 -171 134 -181 158 -200 213 -170 31 17 66 65 66 93 0 14 -282 397 -324
439 -24 25 -51 34 -81 27z"/>
<path d="M3856 2628 c-15 -18 -68 -89 -117 -158 -50 -69 -97 -130 -105 -136
-8 -6 -14 -14 -14 -18 0 -3 -16 -26 -35 -52 -44 -57 -46 -95 -6 -134 38 -39
72 -46 106 -24 26 17 105 116 173 216 18 25 38 52 45 60 7 7 34 42 61 76 63
83 73 137 31 176 -21 20 -39 26 -70 26 -36 0 -47 -5 -69 -32z"/>
<path d="M3282 2518 c-20 -10 -78 -79 -107 -128 -6 -9 -18 -25 -28 -34 -10
-10 -35 -44 -56 -75 -21 -31 -64 -87 -95 -126 -58 -73 -64 -90 -45 -144 13
-38 35 -51 86 -51 44 0 60 10 93 60 28 42 133 183 141 190 3 3 36 44 73 92 56
75 66 94 66 128 0 43 -33 90 -64 90 -8 0 -20 2 -28 4 -7 3 -23 0 -36 -6z"/>
<path d="M2876 2353 c-11 -11 -6 -23 9 -23 8 0 15 4 15 9 0 13 -16 22 -24 14z"/>
<path d="M1255 2169 c-10 -15 3 -25 16 -12 7 7 7 13 1 17 -6 3 -14 1 -17 -5z"/>
<path d="M3325 1961 c-6 -11 9 -23 19 -14 9 9 7 23 -3 23 -6 0 -12 -4 -16 -9z"/>
<path d="M120 1763 c-34 -6 -100 -72 -100 -99 0 -13 -4 -25 -9 -28 -4 -3 -8
-24 -8 -46 0 -32 3 -40 18 -40 10 0 23 -9 29 -21 8 -13 17 -18 28 -14 12 4 11
0 -5 -16 -20 -21 -21 -23 -5 -35 14 -10 15 -16 4 -35 -10 -19 -12 -158 -10
-627 l3 -602 -23 0 c-14 0 -26 8 -32 23 -6 16 -8 7 -6 -33 5 -88 27 -138 71
-159 17 -8 38 -18 47 -23 24 -11 58 -10 58 1 0 5 10 11 23 13 33 5 21 23 -16
23 -36 0 -60 12 -52 26 11 17 86 10 117 -12 25 -18 34 -20 70 -11 55 14 68 4
32 -25 l-29 -24 40 4 c100 13 145 41 166 104 l11 33 2449 0 2449 0 6 -28 c9
-37 63 -92 90 -92 13 0 26 -5 29 -10 3 -6 24 -10 46 -10 32 0 39 3 39 19 0 11
5 23 11 26 5 4 14 18 19 31 11 28 28 31 37 6 13 -36 46 -73 60 -68 7 3 23 0
33 -7 16 -9 24 -9 40 1 11 6 27 12 36 12 23 0 74 55 74 80 0 13 8 24 20 27 24
6 26 19 5 27 -8 3 -15 15 -15 26 0 11 7 20 15 20 17 0 20 26 4 35 -6 4 -13 -2
-16 -14 -3 -13 -13 -21 -27 -21 l-21 0 3 606 c3 572 2 607 -15 620 -15 11 -16
16 -6 33 11 17 10 24 -10 42 -18 18 -19 21 -4 15 12 -4 29 2 44 14 14 11 34
20 44 20 29 0 27 75 -1 83 -12 3 -20 14 -20 26 0 12 -18 41 -39 64 l-40 42
-133 3 c-215 4 -226 0 -289 -96 l-27 -43 -607 1 -606 1 -57 -54 c-63 -60 -121
-87 -185 -87 -61 0 -137 35 -172 80 -47 60 -74 66 -272 60 -162 -5 -173 -6
-198 -28 -24 -21 -27 -29 -23 -73 3 -27 12 -57 22 -67 10 -12 16 -36 16 -71 0
-44 -5 -60 -31 -92 -34 -43 -110 -84 -176 -95 -51 -8 -156 9 -215 35 -80 36
-144 131 -154 230 -8 82 -23 123 -53 148 -37 31 -71 29 -109 -8 -38 -37 -47
-67 -37 -117 13 -66 5 -135 -23 -190 -30 -58 -71 -73 -163 -58 -53 9 -81 38
-93 96 -21 111 -80 138 -173 81 -62 -37 -111 -45 -180 -30 -71 16 -139 80
-166 155 -34 95 10 90 -642 84 -314 -3 -576 -3 -583 -1 -7 2 -20 20 -28 40 -9
20 -32 50 -52 66 l-35 30 -146 2 c-80 0 -157 -1 -171 -4z m30 -133 c0 -5 -7
-10 -15 -10 -8 0 -15 5 -15 10 0 6 7 10 15 10 8 0 15 -4 15 -10z m5715 0 c3
-5 -3 -10 -14 -10 -12 0 -21 5 -21 10 0 6 6 10 14 10 8 0 18 -4 21 -10z
m-5785 -41 c0 -5 -7 -9 -15 -9 -15 0 -20 12 -9 23 8 8 24 -1 24 -14z m433 -13
c9 -3 17 -10 17 -16 0 -17 -36 -11 -60 10 -13 11 -27 20 -32 20 -5 0 -6 5 -3
10 4 7 16 5 33 -4 15 -8 35 -17 45 -20z m5415 16 c2 -7 -3 -12 -12 -12 -9 0
-16 7 -16 16 0 17 22 14 28 -4z m-412 -17 c-29 -25 -66 -34 -66 -15 0 6 6 10
14 10 7 0 19 7 26 15 7 8 22 15 34 15 19 0 19 -2 -8 -25z m-5145 -695 l0 -705
-100 -3 -101 -3 -2 701 c-2 385 -1 705 0 710 3 7 41 10 103 8 l100 -3 0 -705z
m5439 0 l0 -711 -100 3 -101 3 0 703 c0 386 1 704 1 707 0 3 45 5 100 5 l100
0 0 -710z m-2295 631 c7 -12 -31 -25 -46 -15 -8 4 -7 9 2 15 18 11 36 11 44 0z
m1973 -9 c3 -9 -2 -13 -14 -10 -9 1 -19 9 -22 16 -3 9 2 13 14 10 9 -1 19 -9
22 -16z m-4983 -2 c-3 -5 -13 -10 -21 -10 -8 0 -14 5 -14 10 0 6 9 10 21 10
11 0 17 -4 14 -10z m1106 -59 c8 -1 23 -18 32 -40 20 -44 46 -74 102 -116 61
-46 93 -60 178 -80 74 -17 82 -17 138 -1 80 22 82 21 106 -22 36 -63 104 -102
211 -123 112 -21 226 16 285 95 31 40 53 46 62 17 3 -11 20 -30 38 -44 70 -53
130 -78 239 -99 108 -21 112 -22 182 -4 168 41 263 109 326 235 18 36 21 57
18 115 l-3 71 49 3 c66 4 86 -2 127 -38 19 -16 63 -45 99 -62 58 -29 76 -33
170 -36 101 -4 108 -3 171 27 35 17 84 47 106 66 l42 36 568 1 568 1 -3 -499
c-1 -275 1 -525 6 -557 5 -32 5 -60 1 -63 -4 -2 -1102 -4 -2441 -4 l-2433 0
-3 552 c-1 304 0 558 2 563 2 7 184 9 522 8 286 -1 526 -2 535 -2z m1100 -154
c-14 -14 -26 17 -16 41 6 15 8 14 16 -7 6 -16 6 -28 0 -34z m-51 -8 c0 -20
-15 -26 -25 -9 -9 15 3 43 15 35 5 -3 10 -15 10 -26z m-2140 -1019 c0 -11 -4
-20 -9 -20 -11 0 -22 26 -14 34 12 12 23 5 23 -14z m-20 -46 c0 -8 -7 -14 -15
-14 -15 0 -21 21 -9 33 10 9 24 -2 24 -19z m4924 20 c23 -9 20 -24 -4 -24 -11
0 -20 7 -20 15 0 17 2 18 24 9z m-4849 -14 c3 -5 -3 -10 -15 -10 -12 0 -18 5
-15 10 3 6 10 10 15 10 5 0 12 -4 15 -10z m4953 -2 c-7 -19 -38 -22 -38 -4 0
10 9 16 21 16 12 0 19 -5 17 -12z m-5420 -39 c3 -16 -43 -47 -55 -36 -3 4 -1
19 5 33 13 28 45 30 50 3z m5806 -1 c11 -15 12 -26 6 -32 -13 -13 -55 27 -46
43 11 17 23 13 40 -11z m-5461 -4 c5 -5 -6 -27 -29 -63 -2 -1 -7 0 -13 4 -8 4
-6 16 4 36 15 29 26 35 38 23z m5117 -35 c0 -19 -20 -18 -30 1 -15 28 -1 49
17 25 7 -11 13 -22 13 -26z m-5412 -6 c18 -4 20 -8 10 -14 -21 -14 -48 -10
-48 6 0 17 4 18 38 8z m5702 -8 c0 -16 -17 -19 -47 -8 -16 6 -15 8 7 14 38 11
40 10 40 -6z m-216 -33 c-18 -4 -46 17 -38 29 3 5 16 1 29 -8 17 -13 19 -19 9
-21z m-5309 -1 c-16 -15 -68 -17 -72 -3 -3 8 8 12 38 12 26 0 39 -4 34 -9z
m5503 -20 c10 -6 10 -10 -1 -19 -16 -14 -81 4 -71 19 7 11 55 12 72 0z m-228
-18 c20 -18 26 -33 13 -33 -9 1 -47 50 -39 50 3 0 15 -8 26 -17z"/>
<path d="M1251 684 c-13 -9 -29 -32 -37 -50 -12 -29 -12 -39 0 -67 29 -71 103
-88 155 -35 55 56 37 130 -38 156 -44 16 -52 15 -80 -4z"/>
<path d="M2973 690 l-1341 -5 -26 -24 c-19 -18 -26 -35 -26 -61 0 -39 11 -58
50 -84 22 -15 137 -16 1362 -16 l1337 0 36 31 c58 52 45 123 -30 155 -11 5
-604 7 -1362 4z"/>
<path d="M4647 690 c-70 -21 -89 -104 -36 -158 52 -53 126 -36 155 35 12 28
12 38 0 67 -15 36 -51 67 -76 65 -8 0 -27 -4 -43 -9z"/>
</g>
</svg>
