<?xml version="1.0" standalone="no"?>
<!DOCTYPE svg PUBLIC "-//W3C//DTD SVG 20010904//EN"
 "http://www.w3.org/TR/2001/REC-SVG-20010904/DTD/svg10.dtd">
<svg version="1.0" xmlns="http://www.w3.org/2000/svg"
 width="600.000000pt" height="600.000000pt" viewBox="0 0 600.000000 600.000000"
 preserveAspectRatio="xMidYMid meet">
<metadata>
Created by potrace 1.10, written by Peter Selinger 2001-2011
</metadata>
<g transform="translate(0.000000,600.000000) scale(0.100000,-0.100000)"
fill="#000000" stroke="none">
<path d="M3665 4899 c-129 -23 -248 -42 -400 -64 -60 -8 -132 -20 -160 -25
-27 -5 -86 -14 -130 -20 -44 -7 -118 -18 -165 -25 -47 -7 -123 -19 -170 -25
-139 -20 -181 -35 -228 -80 -70 -67 -87 -116 -86 -240 1 -86 5 -114 23 -153
32 -68 88 -121 151 -142 58 -19 64 -19 305 20 148 24 282 43 415 60 300 38
645 89 689 101 15 5 14 23 -19 199 -12 66 -26 147 -30 180 -5 33 -14 76 -20
95 -5 19 -10 56 -10 81 0 40 -3 48 -22 53 -13 3 -25 5 -28 5 -3 -1 -54 -10
-115 -20z m106 -129 c8 -70 36 -233 49 -285 12 -50 13 -112 1 -119 -4 -3 -59
-12 -122 -20 -63 -8 -161 -22 -219 -31 -106 -16 -138 -15 -220 9 -25 8 -72 21
-105 30 -123 34 -259 74 -290 87 -11 4 -40 12 -65 18 -25 5 -76 19 -115 31
-80 24 -128 37 -202 52 -60 13 -68 31 -30 66 32 30 65 40 190 57 126 17 254
36 402 60 55 8 145 22 200 31 236 36 294 45 370 58 44 8 96 14 115 13 35 -2
35 -2 41 -57z m-1272 -329 c9 -6 10 -11 2 -15 -15 -10 -53 3 -46 15 8 11 26
11 44 0z m132 -57 c8 -8 32 -14 52 -14 26 0 39 -6 47 -20 8 -15 21 -20 50 -20
33 0 40 -3 40 -19 0 -25 -7 -29 -71 -41 -29 -6 -60 -16 -68 -24 -28 -23 -61
-26 -73 -6 -9 14 -20 17 -45 13 -36 -6 -63 9 -63 35 0 9 -12 28 -27 44 l-27
28 23 24 c20 22 28 23 84 19 34 -3 69 -12 78 -19z"/>
<path d="M3926 4178 c-3 -7 -12 -40 -21 -73 -8 -33 -22 -76 -29 -95 -60 -157
-92 -403 -55 -426 5 -3 9 -13 9 -23 0 -28 63 -70 113 -77 121 -17 195 60 184
193 -7 86 -27 165 -68 273 -17 47 -44 119 -59 160 -21 58 -32 76 -49 78 -12 2
-23 -3 -25 -10z m52 -470 c-2 -18 -7 -33 -13 -33 -5 0 -11 15 -13 33 -3 24 1
32 13 32 12 0 16 -8 13 -32z"/>
<path d="M1576 3829 c-3 -13 -7 -46 -9 -74 -13 -157 -29 -307 -37 -360 -6 -33
-10 -83 -10 -111 l0 -51 133 -12 c135 -12 439 -34 717 -51 85 -5 187 -13 225
-19 39 -6 131 -12 205 -13 126 -3 137 -1 172 20 84 52 138 159 138 271 0 117
-44 212 -127 271 -51 37 -91 43 -488 76 -104 8 -264 21 -355 29 -91 8 -221 18
-290 24 -69 6 -157 13 -197 17 -70 6 -72 6 -77 -17z m324 -79 c52 -5 183 -16
290 -25 107 -9 265 -22 350 -30 85 -8 203 -17 262 -21 92 -5 112 -9 148 -32
22 -15 39 -33 38 -41 -2 -8 -23 -21 -48 -29 -25 -8 -61 -21 -80 -28 -19 -7
-75 -27 -125 -44 -49 -17 -107 -38 -127 -46 -36 -13 -64 -24 -155 -58 -69 -26
-236 -87 -325 -118 -57 -20 -61 -20 -205 -4 -82 9 -185 16 -230 16 -70 0 -84
3 -92 19 -6 10 -8 21 -5 24 3 2 12 69 19 148 8 79 17 171 21 204 3 33 8 66 10
74 5 14 29 14 254 -9z m975 -320 c4 -7 13 -6 26 1 25 13 81 8 87 -8 2 -7 -8
-18 -22 -24 -14 -7 -26 -19 -26 -28 1 -13 3 -13 15 3 8 11 18 17 21 13 10 -10
-4 -54 -23 -72 -15 -15 -18 -15 -27 -2 -10 12 -13 12 -24 1 -7 -8 -8 -14 -2
-14 5 0 10 -9 10 -20 0 -28 -30 -38 -46 -16 -8 11 -18 15 -25 10 -22 -13 -199
-16 -215 -3 -20 16 -18 29 5 29 14 0 18 5 14 18 -5 21 32 42 76 42 21 0 28 5
27 18 -1 14 7 17 41 16 36 -1 43 3 48 23 5 23 29 31 40 13z"/>
<path d="M3930 3217 c0 -2 -21 -71 -46 -153 -76 -248 -90 -338 -68 -435 13
-59 20 -70 53 -93 31 -22 50 -27 104 -28 78 -1 107 14 137 72 25 49 27 145 4
221 -42 146 -65 213 -86 253 -5 10 -20 50 -33 90 -18 55 -28 72 -44 74 -12 2
-21 2 -21 -1z m55 -438 c11 -33 -3 -69 -25 -69 -22 0 -26 23 -10 64 12 31 26
33 35 5z"/>
<path d="M1496 3148 c-2 -7 -18 -56 -34 -108 -97 -310 -112 -425 -66 -516 26
-50 72 -74 143 -74 71 0 117 28 142 87 29 69 23 136 -32 313 -19 62 -93 259
-108 290 -11 20 -40 25 -45 8z m28 -404 c15 -40 2 -70 -23 -55 -9 6 -11 19 -6
40 7 34 19 40 29 15z m-38 -101 c-11 -11 -19 6 -11 24 8 17 8 17 12 0 3 -10 2
-21 -1 -24z m92 3 c3 -13 -1 -17 -14 -14 -11 2 -20 11 -22 22 -3 13 1 17 14
14 11 -2 20 -11 22 -22z"/>
<path d="M5155 2850 c-22 -15 -80 -49 -130 -74 -49 -26 -139 -73 -200 -106
-60 -32 -139 -73 -175 -90 -132 -63 -124 -51 -97 -147 37 -130 -50 -233 -196
-233 -74 1 -128 29 -201 105 -59 63 -65 66 -97 60 -41 -7 -156 16 -221 45 -58
25 -150 109 -183 165 -14 23 -35 73 -47 111 -11 38 -24 71 -29 74 -4 3 -337 5
-741 5 l-733 0 -49 -25 c-118 -60 -160 -190 -104 -321 19 -44 68 -83 124 -99
35 -10 57 -9 135 5 52 10 153 21 224 26 143 10 736 6 754 -5 6 -4 20 -26 31
-49 40 -82 51 -97 138 -177 88 -83 215 -178 287 -216 22 -11 74 -44 115 -73
41 -28 107 -73 146 -99 39 -26 77 -55 83 -64 18 -28 -17 -55 -80 -63 -30 -3
-67 -10 -84 -15 -16 -5 -99 -25 -184 -45 -85 -20 -161 -41 -170 -45 -9 -5 -38
-19 -65 -32 -59 -28 -127 -86 -156 -133 -30 -48 -32 -135 -4 -171 41 -55 77
-66 199 -60 61 3 124 10 140 15 17 5 59 17 95 27 127 33 366 117 508 179 18 8
47 21 65 29 17 7 57 24 87 36 93 38 287 129 500 235 91 45 188 93 215 107 126
63 293 141 395 185 19 9 53 24 75 33 106 47 139 60 154 60 41 0 54 50 22 84
-21 23 -199 316 -258 424 -20 37 -46 81 -59 99 -13 17 -24 34 -24 37 0 3 -14
29 -31 58 -18 29 -45 79 -61 111 -33 67 -51 71 -113 27z m19 -156 c9 -3 16
-12 16 -20 0 -8 9 -14 20 -14 11 0 23 -8 26 -17 3 -10 11 -31 19 -48 7 -16 16
-38 19 -49 5 -14 9 -16 20 -7 20 17 39 -12 34 -50 -5 -31 1 -37 80 -85 2 -1
-2 -11 -9 -22 -11 -17 -10 -24 3 -39 8 -10 34 -50 56 -89 23 -39 48 -76 56
-83 9 -8 13 -18 9 -24 -4 -6 -9 -27 -13 -46 -5 -34 -9 -36 -65 -52 -61 -16
-319 -141 -330 -159 -3 -6 -14 -10 -24 -10 -10 0 -23 -6 -29 -13 -6 -7 -40
-24 -76 -37 -41 -16 -64 -30 -61 -37 7 -19 -32 -41 -94 -54 -50 -10 -105 -32
-181 -73 -14 -7 -42 -22 -62 -31 -21 -10 -38 -24 -38 -31 0 -8 -14 -12 -44
-11 -33 2 -51 -4 -68 -19 -13 -12 -35 -24 -50 -28 -19 -4 -26 -11 -22 -21 5
-11 -1 -15 -24 -15 -30 0 -151 -44 -225 -81 -21 -10 -45 -19 -55 -19 -10 0
-25 -9 -35 -20 -10 -12 -29 -20 -49 -20 -18 0 -42 -7 -52 -15 -11 -8 -27 -15
-37 -15 -9 0 -22 -7 -29 -15 -7 -8 -22 -14 -34 -13 -11 0 -70 -16 -131 -37
-90 -30 -124 -37 -187 -37 -42 0 -86 3 -97 7 -26 8 -27 35 -2 67 20 25 118 78
146 78 8 0 23 4 33 9 9 5 37 15 62 21 25 7 56 16 70 20 14 5 43 11 65 15 22 3
68 15 103 26 47 16 62 25 62 40 0 10 7 19 15 19 9 0 18 7 21 15 3 8 14 17 23
20 28 8 65 65 52 78 -15 15 -14 54 1 59 6 2 8 10 4 17 -6 9 -11 8 -20 -5 -7
-9 -18 -14 -24 -10 -16 9 -15 39 0 54 10 10 6 18 -22 40 -18 15 -45 29 -59 32
-16 3 -27 13 -29 25 -3 23 -58 60 -84 56 -11 -1 -18 4 -18 14 0 8 -8 18 -17
22 -10 4 -32 18 -50 32 -38 32 -98 69 -180 111 -35 18 -63 37 -63 43 0 5 -30
39 -67 76 -93 92 -123 126 -123 139 0 7 -6 12 -14 12 -7 0 -21 11 -30 25 -9
14 -35 34 -59 46 -41 21 -51 22 -477 22 -239 -1 -473 -4 -520 -8 l-86 -8 -28
34 c-55 66 -12 142 89 154 95 12 1248 1 1277 -12 15 -7 42 -33 60 -58 18 -26
45 -61 61 -80 15 -18 27 -37 27 -43 0 -5 9 -12 20 -15 11 -3 23 -13 27 -24 7
-20 25 -34 99 -79 50 -30 73 -38 211 -70 47 -10 86 -26 109 -45 20 -15 44 -31
55 -34 10 -4 19 -10 19 -15 0 -10 46 -37 100 -58 19 -7 69 -14 110 -15 104 -2
177 33 224 107 18 28 36 61 40 73 4 11 17 24 29 27 18 4 25 17 35 63 7 32 14
72 15 88 1 22 8 31 23 33 12 2 24 12 27 23 3 11 14 19 26 19 23 0 195 83 222
107 9 7 23 13 30 11 9 -2 13 4 11 15 -2 13 4 17 31 17 19 0 40 7 47 15 13 16
29 19 54 9z"/>
<path d="M1491 2328 c-9 -25 -19 -57 -52 -158 -96 -300 -93 -470 11 -523 48
-24 142 -15 183 18 80 62 72 220 -23 465 -12 30 -25 66 -30 80 -40 115 -53
140 -71 140 -5 0 -13 -10 -18 -22z m69 -402 c0 -7 -10 -16 -22 -20 l-23 -6 23
-15 c26 -19 29 -47 7 -65 -19 -16 -25 -11 -35 35 -10 45 5 85 32 85 10 0 18
-6 18 -14z"/>
<path d="M2725 2270 c-215 -4 -275 -8 -295 -20 -149 -89 -173 -239 -46 -280
53 -17 220 -7 272 16 21 10 57 25 79 34 22 10 47 21 55 24 63 28 300 203 300
222 0 10 -12 13 -47 12 -27 -1 -169 -5 -318 -8z m-82 -130 c9 -11 17 -24 17
-28 0 -4 -36 -7 -80 -7 -44 0 -80 2 -80 5 0 3 15 15 33 28 40 28 87 29 110 2z"/>
<path d="M3114 2137 c-32 -24 -66 -46 -74 -50 -14 -7 -37 -21 -199 -129 -40
-27 -76 -48 -81 -48 -20 0 -50 -54 -50 -92 0 -117 105 -180 217 -131 84 36
183 88 183 95 0 5 5 8 11 8 5 0 27 13 47 28 20 16 65 49 99 75 34 26 66 47 72
47 6 0 15 9 21 20 10 18 0 32 -81 118 -50 53 -94 98 -99 100 -4 1 -33 -17 -66
-41z m56 -147 c0 -13 -7 -20 -20 -20 -22 0 -23 1 -14 24 9 23 34 20 34 -4z
m-74 -17 l26 -17 -34 -17 c-31 -18 -32 -19 -10 -25 12 -3 22 -10 22 -15 0 -12
-47 -11 -55 1 -3 5 -12 7 -20 4 -8 -3 -19 -3 -24 0 -16 10 -1 36 20 36 12 0
23 10 29 25 11 30 13 30 46 8z m-48 -100 c-3 -19 -30 -28 -53 -19 -25 9 -5 36
27 36 23 0 29 -4 26 -17z m-94 -32 c3 -5 -11 -11 -32 -14 -20 -3 -45 -8 -54
-12 -14 -5 -18 -2 -18 14 0 19 6 21 49 21 28 0 52 -4 55 -9z"/>
<path d="M265 1582 c-6 -4 -10 -108 -10 -275 0 -171 4 -267 10 -267 8 0 2160
0 2190 0 6 0 9 95 8 267 l-1 268 -330 3 -330 2 -48 -45 c-27 -25 -53 -45 -57
-45 -10 0 -47 -31 -120 -102 -28 -27 -56 -48 -65 -48 -8 0 -40 25 -71 55 -31
30 -89 84 -130 120 l-75 65 -467 0 c-257 0 -473 2 -481 5 -7 3 -17 1 -23 -3z
m205 -112 c0 -6 111 -10 313 -11 171 0 335 -5 362 -10 28 -5 61 -10 74 -9 16
0 21 -4 18 -14 -7 -18 12 -36 38 -36 11 0 26 -9 33 -20 6 -11 28 -26 47 -34
23 -10 35 -22 35 -34 0 -11 12 -27 26 -37 22 -14 28 -15 42 -3 24 20 55 11 49
-14 -5 -16 -1 -19 21 -16 19 2 28 10 30 25 3 19 7 21 22 13 36 -19 66 10 38
38 -9 9 -9 15 0 24 9 9 15 8 25 -7 13 -17 17 -16 68 22 30 23 77 54 104 71
l50 30 207 1 208 2 25 -25 c23 -23 25 -32 25 -124 0 -82 -3 -102 -18 -115 -16
-15 -103 -16 -921 -16 -794 -1 -906 -3 -921 -16 -23 -21 -33 -19 -27 4 5 20
-17 36 -34 25 -17 -10 -29 46 -29 133 0 82 1 86 30 113 17 15 30 33 30 39 0 6
7 11 15 11 8 0 15 -4 15 -10z"/>
</g>
</svg>
