<?xml version="1.0" standalone="no"?>
<!DOCTYPE svg PUBLIC "-//W3C//DTD SVG 20010904//EN"
 "http://www.w3.org/TR/2001/REC-SVG-20010904/DTD/svg10.dtd">
<svg version="1.0" xmlns="http://www.w3.org/2000/svg"
 width="600.000000pt" height="600.000000pt" viewBox="0 0 600.000000 600.000000"
 preserveAspectRatio="xMidYMid meet">
<metadata>
Created by potrace 1.10, written by Peter Selinger 2001-2011
</metadata>
<g transform="translate(0.000000,600.000000) scale(0.100000,-0.100000)"
fill="#000000" stroke="none">
<path d="M2870 5559 c-14 -6 -43 -14 -65 -19 -54 -11 -113 -34 -127 -48 -7 -7
-18 -12 -26 -12 -17 0 -124 -82 -172 -131 -79 -82 -101 -115 -180 -264 -6 -11
-19 -33 -30 -50 -11 -16 -24 -39 -30 -50 -6 -11 -19 -33 -30 -50 -10 -16 -31
-52 -45 -80 -14 -27 -34 -63 -45 -80 -11 -16 -24 -39 -30 -50 -6 -11 -24 -42
-41 -70 -16 -27 -37 -63 -45 -80 -8 -16 -23 -43 -34 -60 -11 -16 -24 -39 -30
-50 -6 -11 -24 -42 -41 -70 -16 -27 -37 -63 -45 -80 -8 -16 -23 -43 -34 -60
-11 -16 -24 -39 -30 -50 -6 -11 -19 -33 -30 -50 -10 -16 -31 -52 -45 -80 -14
-27 -34 -63 -45 -80 -11 -16 -24 -39 -30 -50 -6 -11 -19 -33 -30 -50 -11 -16
-31 -52 -45 -80 -14 -27 -35 -63 -45 -80 -11 -16 -24 -39 -30 -50 -11 -21 -18
-34 -62 -103 -16 -24 -28 -49 -28 -57 0 -8 -5 -17 -11 -20 -5 -4 -15 -17 -20
-28 -5 -12 -18 -35 -29 -52 -11 -16 -24 -39 -30 -50 -6 -11 -24 -42 -41 -70
-16 -27 -37 -63 -45 -80 -8 -16 -23 -43 -34 -60 -11 -16 -24 -39 -30 -50 -6
-11 -26 -47 -45 -80 -19 -33 -39 -69 -45 -80 -6 -11 -19 -33 -30 -50 -11 -16
-24 -39 -30 -50 -6 -11 -19 -33 -30 -50 -10 -16 -31 -52 -45 -80 -14 -27 -34
-63 -45 -80 -11 -16 -24 -39 -30 -50 -6 -11 -24 -42 -41 -70 -16 -27 -37 -63
-45 -80 -8 -16 -23 -43 -34 -60 -11 -16 -24 -39 -30 -50 -6 -11 -24 -42 -41
-70 -16 -27 -37 -63 -45 -80 -8 -16 -23 -43 -34 -60 -11 -16 -24 -39 -30 -50
-6 -11 -19 -33 -30 -50 -10 -16 -31 -52 -45 -80 -14 -27 -34 -63 -45 -80 -11
-16 -24 -39 -30 -50 -6 -11 -19 -33 -30 -50 -11 -16 -31 -52 -45 -80 -14 -27
-35 -63 -45 -80 -187 -296 -197 -540 -35 -834 42 -77 223 -240 295 -267 8 -3
29 -11 45 -18 121 -52 61 -49 1040 -57 501 -4 1324 -7 1830 -8 506 0 1087 -4
1290 -7 276 -5 385 -3 430 6 33 7 78 15 100 20 40 7 62 15 145 53 136 62 268
194 333 332 10 22 25 53 33 68 8 16 14 39 14 51 0 12 7 43 16 69 33 98 1 350
-57 447 -5 8 -12 22 -15 30 -3 8 -10 22 -15 30 -5 8 -14 24 -19 35 -6 11 -19
34 -30 50 -10 17 -31 53 -45 80 -14 28 -34 64 -45 80 -11 17 -24 39 -30 50 -6
11 -26 47 -45 80 -19 33 -39 69 -45 80 -6 11 -19 34 -30 50 -10 17 -31 53 -45
80 -14 28 -34 64 -45 80 -11 17 -24 39 -30 50 -6 11 -26 47 -45 80 -19 33 -39
69 -45 80 -6 11 -19 34 -30 50 -10 17 -31 53 -45 80 -14 28 -34 64 -45 80 -11
17 -24 39 -30 50 -6 11 -26 47 -45 80 -19 33 -40 69 -45 80 -6 11 -19 34 -29
50 -11 17 -28 46 -38 65 -33 60 -64 114 -83 145 -11 17 -26 44 -34 60 -8 17
-29 53 -45 80 -17 28 -35 59 -41 70 -6 11 -26 47 -45 80 -19 33 -40 69 -45 80
-6 11 -19 34 -30 50 -11 17 -26 44 -34 60 -8 17 -29 53 -45 80 -17 28 -35 59
-41 70 -6 11 -26 47 -45 80 -19 33 -40 69 -45 80 -6 11 -19 34 -30 50 -11 17
-26 44 -34 60 -8 17 -29 53 -45 80 -17 28 -35 59 -41 70 -6 11 -19 34 -30 50
-10 17 -31 53 -45 80 -14 28 -34 64 -45 80 -11 17 -24 39 -30 50 -6 11 -26 47
-45 80 -19 33 -39 69 -45 80 -6 11 -19 34 -30 50 -10 17 -31 53 -45 80 -14 28
-34 64 -45 80 -11 17 -24 39 -30 50 -6 11 -26 47 -45 80 -19 33 -39 69 -45 80
-6 11 -19 34 -30 50 -10 17 -31 53 -45 80 -14 28 -35 64 -45 80 -11 17 -23 37
-27 45 -28 64 -196 230 -232 230 -6 0 -11 4 -11 10 0 5 -11 12 -25 16 -13 3
-29 12 -36 20 -6 8 -20 14 -29 14 -10 0 -31 6 -47 14 -15 8 -48 20 -73 26 -59
16 -268 23 -300 9z m326 -148 c76 -24 93 -33 169 -93 108 -83 131 -114 264
-348 24 -41 60 -104 81 -140 21 -36 158 -276 305 -535 147 -258 291 -510 320
-560 57 -99 271 -470 295 -512 14 -25 271 -474 412 -720 32 -57 85 -150 118
-208 33 -58 87 -152 120 -210 33 -58 87 -152 120 -210 33 -58 88 -153 122
-212 140 -246 167 -308 188 -441 12 -73 12 -93 -3 -170 -37 -193 -149 -352
-306 -435 -142 -74 30 -70 -2355 -67 -1176 1 -2173 6 -2215 10 -112 14 -151
23 -224 58 -138 64 -235 171 -299 327 -31 76 -33 86 -33 210 0 161 18 226 103
370 64 109 114 196 202 350 166 291 253 441 260 450 5 6 35 57 68 115 148 262
222 392 272 475 62 106 137 235 238 412 102 177 208 361 232 403 92 154 132
225 165 285 43 79 65 117 113 196 33 55 37 62 63 111 8 15 39 69 70 120 57 93
143 244 227 393 135 242 216 365 284 431 98 94 187 141 314 164 76 14 240 4
310 -19z"/>
<path d="M2905 5315 c-33 -7 -72 -18 -86 -23 -53 -21 -137 -82 -184 -134 -48
-53 -115 -146 -115 -160 0 -6 -79 -144 -171 -298 -24 -41 -156 -270 -242 -420
-33 -58 -106 -184 -162 -280 -56 -96 -130 -224 -165 -285 -35 -60 -109 -188
-164 -282 -56 -95 -130 -224 -165 -285 -35 -62 -104 -183 -154 -268 -49 -85
-105 -182 -124 -215 -19 -33 -38 -67 -43 -75 -5 -8 -26 -44 -46 -80 -21 -36
-74 -128 -119 -205 -89 -152 -196 -336 -295 -510 -35 -60 -86 -150 -115 -200
-29 -49 -77 -136 -106 -193 l-54 -103 -3 -114 c-4 -130 9 -185 64 -272 34 -53
139 -163 156 -163 5 0 24 -11 43 -26 19 -14 66 -33 112 -44 74 -17 184 -18
2213 -25 1632 -6 2150 -4 2199 5 95 17 175 62 257 144 127 127 176 275 145
438 -12 61 -108 260 -167 347 -13 20 -24 40 -24 44 0 5 -35 68 -78 141 -43 72
-109 185 -147 251 -83 147 -175 308 -203 355 -11 19 -50 87 -85 150 -36 63
-105 185 -154 270 -227 395 -289 504 -307 538 -10 20 -46 84 -80 142 -35 58
-93 159 -131 225 -84 149 -176 309 -203 355 -11 19 -47 82 -79 140 -63 112
-232 408 -317 555 -73 126 -129 222 -145 254 -30 56 -105 152 -148 191 -119
104 -267 146 -408 115z m205 -125 c19 -7 42 -17 50 -21 8 -5 24 -13 35 -18 35
-16 91 -74 121 -126 16 -27 34 -59 41 -70 7 -11 17 -29 23 -40 6 -11 19 -33
30 -50 10 -16 31 -52 45 -80 14 -27 34 -63 45 -80 11 -16 24 -39 30 -50 6 -11
26 -47 45 -80 19 -33 39 -69 45 -80 6 -11 19 -33 30 -50 11 -16 31 -52 45 -80
14 -27 35 -63 45 -80 11 -16 24 -39 30 -50 6 -11 26 -47 45 -80 19 -33 39 -69
45 -80 6 -11 19 -33 30 -50 11 -16 31 -52 45 -80 14 -27 35 -63 45 -80 11 -16
24 -39 30 -50 6 -11 26 -47 45 -80 19 -33 39 -69 45 -80 6 -11 19 -33 30 -50
11 -16 31 -52 45 -80 14 -27 35 -63 45 -80 11 -16 24 -39 30 -50 6 -11 26 -47
45 -80 19 -33 39 -69 45 -80 6 -11 19 -33 30 -50 11 -16 31 -52 45 -80 14 -27
35 -63 45 -80 11 -16 24 -39 30 -50 6 -11 26 -47 45 -80 19 -33 39 -69 45 -80
6 -11 19 -33 30 -50 11 -16 31 -52 45 -80 14 -27 35 -63 45 -80 11 -16 24 -39
30 -50 6 -11 26 -47 45 -80 19 -33 39 -69 45 -80 6 -11 19 -33 30 -50 11 -16
31 -52 45 -80 14 -27 35 -63 45 -80 11 -16 24 -39 30 -50 6 -11 26 -47 45 -80
19 -33 39 -69 45 -80 6 -11 19 -33 30 -50 11 -16 31 -52 45 -80 14 -27 35 -63
45 -80 11 -16 24 -39 30 -50 6 -11 26 -47 45 -80 19 -33 39 -69 45 -80 6 -11
19 -33 30 -50 11 -16 31 -52 45 -80 14 -27 35 -63 45 -80 11 -16 22 -37 25
-45 3 -8 13 -28 21 -43 9 -18 14 -58 14 -108 0 -69 -4 -89 -30 -141 -58 -117
-134 -184 -252 -222 -55 -18 -108 -19 -1415 -12 -2024 9 -2912 16 -2973 22
-62 6 -104 24 -170 72 -47 35 -109 116 -110 143 0 8 -7 24 -15 35 -10 13 -14
46 -15 111 0 86 3 97 36 165 19 40 44 87 54 103 11 17 24 39 30 50 6 11 19 34
30 50 11 17 24 39 30 50 6 11 26 47 45 80 19 33 39 69 45 80 6 11 19 34 30 50
11 17 24 39 29 50 5 11 21 37 35 58 14 21 26 44 26 52 0 8 5 17 11 20 5 4 15
17 20 28 5 12 18 36 29 52 11 17 24 39 30 50 6 11 24 43 41 70 16 28 37 64 45
80 8 17 23 44 34 60 11 17 24 39 30 50 6 11 19 34 30 50 11 17 31 53 45 80 14
28 35 64 45 80 11 17 24 39 30 50 6 11 19 34 29 50 20 31 50 83 84 145 10 19
27 49 38 65 10 17 23 39 29 50 6 11 24 43 41 70 16 28 37 64 45 80 8 17 23 44
34 60 11 17 24 39 30 50 6 11 19 34 30 50 10 17 31 53 45 80 14 28 34 64 45
80 11 17 24 39 30 50 6 11 19 34 30 50 11 17 31 53 46 80 31 59 48 89 74 130
11 17 24 39 30 50 6 11 19 34 30 50 10 17 31 53 45 80 14 28 34 64 45 80 11
17 24 39 30 50 6 11 19 34 30 50 11 17 31 53 45 80 14 28 35 64 45 80 11 17
24 39 30 50 11 21 18 34 63 103 15 24 27 49 27 57 0 8 5 17 11 20 5 4 15 17
20 28 5 12 18 36 29 52 11 17 24 39 30 50 6 11 24 43 41 70 16 28 37 64 45 80
8 17 23 44 34 60 11 17 24 39 30 50 6 11 19 34 30 50 11 17 31 54 45 82 31 62
114 157 159 181 72 38 121 50 196 48 41 -1 91 -8 110 -16z"/>
<path d="M2949 4324 c-13 -16 -29 -41 -49 -79 -6 -11 -19 -33 -30 -50 -11 -16
-23 -38 -26 -47 -4 -10 -10 -18 -14 -18 -5 0 -13 -12 -19 -27 -6 -16 -20 -41
-31 -58 -11 -16 -22 -36 -25 -42 -3 -7 -7 -19 -10 -25 -3 -7 -9 -20 -14 -28
-9 -16 -27 -57 -57 -129 -28 -68 -26 -211 5 -273 12 -27 27 -48 32 -48 5 0 9
-4 9 -10 0 -22 93 -97 149 -119 48 -20 194 -20 242 0 54 22 149 97 149 118 0
5 7 11 15 15 8 3 15 12 15 21 0 9 8 27 17 41 25 38 24 195 -1 255 -29 68 -115
240 -136 274 -11 17 -24 39 -30 50 -6 11 -18 32 -28 47 -94 146 -96 148 -123
148 -15 0 -33 -7 -40 -16z m73 -221 c32 -36 128 -221 153 -292 32 -95 32 -153
0 -217 -33 -67 -91 -103 -176 -110 -58 -5 -69 -2 -114 24 -37 22 -58 44 -79
82 -26 47 -28 59 -23 124 6 79 47 188 112 298 65 108 94 128 127 91z"/>
<path d="M2931 3012 c-17 -22 -31 -43 -31 -47 0 -4 -13 -24 -28 -44 -16 -20
-32 -43 -35 -51 -4 -8 -16 -28 -27 -45 -10 -16 -31 -52 -45 -80 -14 -27 -30
-57 -35 -65 -5 -8 -11 -22 -14 -30 -3 -8 -10 -22 -15 -30 -39 -66 -91 -228
-91 -285 0 -37 20 -115 42 -162 29 -64 99 -135 170 -173 60 -32 68 -34 169
-34 84 0 111 3 132 17 14 9 31 17 37 17 35 0 129 97 171 175 28 53 44 158 31
203 -7 22 -12 49 -12 60 0 11 -6 33 -14 49 -7 15 -20 44 -29 63 -20 47 -56
122 -67 140 -5 8 -11 22 -14 30 -4 8 -15 29 -26 45 -11 17 -24 39 -30 50 -6
11 -19 34 -30 50 -11 17 -24 39 -30 50 -5 11 -26 45 -47 75 -31 44 -44 56 -69
58 -26 3 -37 -3 -63 -36z m110 -214 c17 -24 64 -110 105 -193 78 -157 102
-243 89 -315 -43 -228 -360 -273 -467 -65 -13 25 -23 67 -26 111 -4 64 -1 77
34 160 47 108 141 283 171 318 33 37 58 33 94 -16z"/>
<path d="M1924 2870 c-26 -10 -74 -71 -74 -91 1 -30 33 -68 191 -226 l164
-163 46 0 c39 0 52 5 78 32 22 23 31 41 31 65 0 29 -19 52 -173 207 -143 144
-178 175 -207 180 -19 3 -45 1 -56 -4z"/>
<path d="M3980 2873 c-8 -3 -93 -84 -187 -180 -192 -193 -197 -202 -147 -269
24 -31 31 -34 78 -34 l52 0 171 173 c94 94 174 182 178 195 5 17 0 34 -20 63
-33 51 -78 69 -125 52z"/>
<path d="M1670 2307 c-41 -19 -59 -49 -60 -94 0 -30 6 -49 23 -66 24 -27 111
-57 163 -57 17 0 51 -7 74 -15 23 -8 57 -15 75 -15 18 0 52 -7 75 -15 23 -8
64 -15 89 -15 40 0 52 5 77 31 23 24 29 39 29 75 0 40 -4 49 -35 74 -26 22
-46 30 -76 30 -23 0 -61 7 -84 15 -23 8 -60 15 -82 15 -22 0 -48 4 -58 10 -10
5 -47 14 -82 19 -35 6 -72 12 -83 15 -11 3 -31 0 -45 -7z"/>
<path d="M4180 2300 c-30 -5 -68 -13 -83 -19 -16 -6 -43 -11 -61 -11 -19 0
-53 -7 -76 -15 -23 -8 -61 -15 -84 -15 -31 0 -50 -7 -76 -29 -31 -25 -35 -35
-35 -74 0 -37 6 -52 29 -76 25 -26 37 -31 77 -31 25 0 66 7 89 15 23 8 57 15
75 15 18 0 52 7 75 15 23 8 57 15 74 15 18 0 57 7 87 16 68 20 98 54 98 109 1
77 -61 105 -189 85z"/>
<path d="M1584 1756 l-39 -34 0 -211 0 -211 30 -25 30 -24 1386 -1 1385 0 30
31 29 30 0 206 0 205 -40 34 -40 34 -420 0 -420 0 -45 -41 c-25 -23 -54 -45
-65 -50 -11 -5 -33 -18 -50 -29 -16 -11 -37 -22 -45 -26 -8 -3 -28 -11 -45
-18 -93 -39 -133 -46 -281 -46 -110 1 -156 4 -174 15 -14 8 -35 14 -47 15 -12
0 -34 7 -50 14 -15 8 -35 18 -43 21 -33 13 -134 81 -174 118 l-30 27 -422 0
-421 0 -39 -34z m863 -120 c28 -13 76 -40 107 -60 117 -75 295 -126 436 -126
79 0 222 29 310 63 36 14 108 51 160 84 l95 58 351 3 c429 4 397 15 402 -140
3 -96 2 -105 -18 -123 -22 -20 -42 -20 -1298 -23 l-1276 -2 -28 27 c-26 25
-28 33 -28 100 0 79 17 134 47 152 12 7 133 10 353 11 333 0 335 0 387 -24z"/>
</g>
</svg>
