<?xml version="1.0" standalone="no"?>
<!DOCTYPE svg PUBLIC "-//W3C//DTD SVG 20010904//EN"
 "http://www.w3.org/TR/2001/REC-SVG-20010904/DTD/svg10.dtd">
<svg version="1.0" xmlns="http://www.w3.org/2000/svg"
 width="480.000000pt" height="129.000000pt" viewBox="0 0 480.000000 129.000000"
 preserveAspectRatio="xMidYMid meet">
<metadata>
Created by potrace 1.10, written by Peter Selinger 2001-2011
</metadata>
<g transform="translate(0.000000,129.000000) scale(0.100000,-0.100000)"
fill="#4242ff" stroke="none">
<path d="M1133 953 c-61 -4 -63 -5 -63 -31 0 -16 5 -33 12 -40 9 -9 9 -18 0
-37 -7 -14 -12 -36 -12 -47 0 -12 -5 -38 -11 -57 -30 -94 -37 -97 -64 -33 -34
77 -48 108 -61 134 -8 14 -14 31 -14 37 0 7 -10 25 -22 41 -21 29 -24 30 -111
30 l-89 0 6 -32 c11 -51 6 -118 -9 -149 -8 -15 -15 -37 -15 -48 0 -11 -6 -35
-14 -53 -7 -18 -19 -53 -25 -78 -7 -25 -15 -57 -19 -72 -4 -14 -19 -36 -35
-48 -30 -24 -36 -57 -11 -62 9 -2 47 -2 85 0 65 3 69 5 69 27 0 13 -5 27 -11
31 -16 10 -7 61 38 222 11 40 19 52 31 50 9 -2 18 -12 20 -23 3 -19 6 -28 39
-105 79 -185 90 -200 142 -200 40 0 81 38 81 75 0 13 7 39 15 58 8 20 15 47
15 61 0 13 7 37 15 52 8 16 15 40 15 54 1 14 7 36 15 50 8 14 14 38 15 53 0
18 12 41 35 64 38 39 45 67 19 77 -9 3 -16 5 -17 4 -1 -1 -30 -3 -64 -5z"/>
<path d="M3517 932 c-19 -20 -23 -87 -7 -97 6 -3 10 -13 10 -21 0 -18 -39 -18
-64 1 -13 10 -43 15 -83 15 -81 0 -176 -44 -210 -96 -33 -52 -32 -116 4 -142
l26 -19 -36 -37 c-36 -35 -48 -66 -27 -66 22 0 8 -28 -17 -35 -54 -13 -93 -45
-93 -74 0 -37 29 -61 98 -83 72 -23 218 -24 269 -3 19 8 42 15 50 15 25 0 85
53 100 87 11 29 11 37 -1 62 -18 34 -49 41 -177 41 -64 0 -90 4 -99 15 -26 31
-5 43 87 48 127 7 148 14 198 64 41 40 45 49 45 93 0 31 -5 52 -16 60 -9 8
-14 25 -12 44 3 30 4 31 58 31 54 0 55 0 58 32 3 25 -3 36 -31 57 -42 32 -105
36 -130 8z m-103 -207 c-1 -55 -33 -124 -61 -131 -37 -10 -46 4 -38 60 8 62
47 119 78 114 19 -3 22 -9 21 -43z m-58 -318 c4 -3 4 -17 0 -30 -4 -17 -15
-26 -37 -31 -50 -10 -104 -7 -117 6 -12 12 -16 50 -7 60 7 7 154 2 161 -5z"/>
<path d="M1325 810 c-97 -45 -137 -110 -139 -225 -1 -75 1 -86 23 -109 38 -41
100 -66 162 -66 87 0 179 57 179 110 0 36 -9 42 -34 25 -12 -9 -44 -15 -81
-15 -66 0 -95 19 -95 61 0 19 5 21 43 17 23 -3 71 0 107 5 85 13 120 43 120
101 -1 45 -18 71 -67 99 -43 24 -163 22 -218 -3z m113 -82 c4 -44 -27 -78 -70
-78 -27 0 -37 13 -19 24 5 3 12 17 15 31 9 34 37 66 56 63 9 -2 16 -17 18 -40z"/>
<path d="M1687 795 c-45 -43 -56 -74 -33 -91 23 -16 46 -95 46 -156 0 -64 32
-135 62 -140 24 -3 33 -25 20 -45 -4 -6 -23 -14 -44 -18 -31 -6 -37 -4 -43 14
-9 29 -63 81 -83 81 -35 -1 -62 -36 -62 -80 0 -43 6 -53 53 -83 33 -22 118
-19 178 4 50 20 140 90 182 141 47 58 97 152 97 180 0 13 5 29 10 34 6 6 13
40 17 76 7 83 -12 117 -67 118 -29 0 -39 -6 -57 -35 -30 -46 -29 -90 5 -144
28 -44 28 -45 10 -79 -19 -38 -47 -72 -58 -72 -18 0 -40 85 -40 156 0 118 -35
174 -110 174 -40 0 -52 -5 -83 -35z"/>
<path d="M2255 812 c-101 -58 -125 -99 -133 -225 -4 -82 -3 -89 18 -112 60
-64 175 -84 257 -44 47 23 83 65 83 98 0 22 -24 29 -35 11 -3 -5 -36 -10 -73
-10 -73 0 -102 17 -102 61 0 20 4 21 47 16 71 -8 163 12 196 42 21 20 27 34
27 68 0 46 -13 65 -67 96 -43 23 -176 23 -218 -1z m113 -83 c4 -46 -24 -79
-67 -79 -17 0 -31 2 -31 5 0 6 10 25 40 78 28 48 54 46 58 -4z"/>
<path d="M2638 814 c-39 -17 -51 -47 -23 -58 19 -7 19 -36 0 -72 -8 -16 -15
-40 -15 -54 0 -14 -7 -34 -15 -44 -8 -11 -15 -32 -15 -46 0 -16 -14 -43 -35
-67 -37 -43 -43 -62 -22 -64 40 -3 243 3 249 7 5 3 3 15 -4 27 -15 29 -12 91
7 127 8 16 15 38 15 49 0 56 57 116 90 96 17 -10 11 -63 -10 -102 -11 -21 -20
-45 -20 -55 0 -9 -4 -20 -10 -23 -5 -3 -10 -20 -10 -37 0 -46 50 -88 105 -88
48 0 109 30 126 62 9 16 7 20 -10 25 -25 6 -29 57 -6 87 8 11 15 30 15 42 0
12 7 35 15 50 24 46 19 77 -20 117 -30 31 -43 37 -78 37 -43 0 -71 -13 -118
-57 l-27 -24 -18 38 c-18 37 -21 38 -74 40 -32 2 -70 -4 -92 -13z"/>
<path d="M3737 773 c-13 -13 -7 -32 13 -38 13 -4 20 -15 20 -31 0 -15 6 -24
15 -24 10 0 15 10 15 30 0 41 14 38 37 -7 19 -40 49 -59 40 -27 -3 11 -8 31
-11 45 -7 33 -49 57 -69 40 -12 -9 -16 -8 -21 4 -6 15 -28 20 -39 8z"/>
<path d="M3753 633 c-18 -7 -16 -59 4 -91 26 -42 86 -102 102 -102 8 0 23 7
33 16 20 19 25 12 30 -41 3 -27 7 -30 44 -33 34 -3 42 1 51 20 6 14 7 32 2 46
-7 18 -16 22 -49 22 -38 0 -52 11 -30 25 6 3 10 22 10 41 0 29 -6 38 -37 57
-35 20 -114 47 -138 46 -5 0 -16 -3 -22 -6z"/>
<path d="M4105 415 c-5 -2 -21 -6 -35 -9 -65 -16 -75 -57 -22 -92 47 -31 101
-35 154 -12 26 11 49 27 50 36 6 26 -2 47 -21 59 -18 11 -109 25 -126 18z"/>
<path d="M3883 355 c-14 -16 -32 -25 -50 -25 -25 0 -33 -7 -52 -44 -17 -34
-28 -45 -49 -48 -19 -2 -27 -9 -27 -23 0 -16 7 -20 34 -20 29 0 39 7 66 45 20
29 40 45 54 46 12 1 23 3 24 5 48 85 48 119 0 64z"/>
<path d="M3978 275 c-2 -21 3 -51 15 -76 15 -34 22 -40 45 -37 37 4 38 30 3
50 -23 13 -30 24 -33 54 -4 49 -24 56 -30 9z"/>
<path d="M4160 247 c0 -18 42 -47 70 -47 15 0 20 7 20 25 0 19 -5 25 -22 25
-13 0 -33 3 -45 6 -17 5 -23 2 -23 -9z"/>
</g>
</svg>
